<svg width="24" height="24" viewBox="0 0 24 24" fill="none" xmlns="http://www.w3.org/2000/svg">
<path d="M23.4758 4.56909C22.6262 4.95809 21.719 5.22309 20.7638 5.34409C21.7373 4.73309 22.4861 3.77009 22.8403 2.62109C21.9273 3.17609 20.9155 3.58009 19.8384 3.80509C18.9782 2.84609 17.7523 2.24609 16.391 2.24609C13.7827 2.24609 11.6678 4.44909 11.6678 7.16309C11.6678 7.55309 11.711 7.92809 11.7897 8.28709C7.86334 8.09409 4.38334 6.13009 2.05438 3.16109C1.64446 3.88309 1.41502 4.72209 1.41502 5.63609C1.41502 7.34609 2.25022 8.84909 3.5155 9.73209C2.74078 9.70609 2.01214 9.48409 1.37662 9.11609V9.17709C1.37662 11.5621 3.0019 13.5511 5.16478 14.0041C4.7683 14.1151 4.34974 14.1751 3.92062 14.1751C3.61918 14.1751 3.33022 14.1451 3.04126 14.0891C3.64702 16.0421 5.38846 17.4661 7.4611 17.5061C5.8483 18.8251 3.80446 19.6111 1.60318 19.6111C1.22878 19.6111 0.85534 19.5881 0.47998 19.5441C2.58142 20.9381 5.05726 21.7531 7.7347 21.7531C16.4265 21.7531 21.1737 14.2571 21.1737 7.76709C21.1737 7.55809 21.1737 7.34709 21.1593 7.13709C22.0819 6.44809 22.8873 5.57709 23.5209 4.58909L23.4758 4.56909Z" fill="#222222"/>
</svg>
